<mxfile host="Electron" agent="Mozilla/5.0 (Windows NT 10.0; Win64; x64) AppleWebKit/537.36 (KHTML, like Gecko) draw.io/24.7.5 Chrome/126.0.6478.183 Electron/31.3.0 Safari/537.36" version="24.7.5">
  <diagram name="Page-1" id="ORn4YXYJeCM66VWbmSJz">
    <mxGraphModel dx="819" dy="478" grid="1" gridSize="10" guides="1" tooltips="1" connect="1" arrows="1" fold="1" page="1" pageScale="1" pageWidth="1654" pageHeight="2336" math="0" shadow="0">
      <root>
        <mxCell id="0" />
        <mxCell id="1" parent="0" />
        <mxCell id="KSCz8jUNw5rVyCKfR1MM-1" value="V, Î©" style="ellipse;whiteSpace=wrap;html=1;aspect=fixed;fillColor=#FF645E;strokeColor=#FA0000;" vertex="1" parent="1">
          <mxGeometry x="240" y="720" width="40" height="40" as="geometry" />
        </mxCell>
        <mxCell id="KSCz8jUNw5rVyCKfR1MM-2" value="mA, A" style="ellipse;whiteSpace=wrap;html=1;aspect=fixed;fillColor=#FF645E;strokeColor=#FA0000;" vertex="1" parent="1">
          <mxGeometry x="240" y="800" width="40" height="40" as="geometry" />
        </mxCell>
        <mxCell id="KSCz8jUNw5rVyCKfR1MM-4" value="GND" style="ellipse;whiteSpace=wrap;html=1;aspect=fixed;fillStyle=auto;fillColor=#0F0F0F;strokeColor=#FFFFFF;fontColor=#FFFFFF;" vertex="1" parent="1">
          <mxGeometry x="240" y="880" width="40" height="40" as="geometry" />
        </mxCell>
        <mxCell id="KSCz8jUNw5rVyCKfR1MM-35" style="edgeStyle=orthogonalEdgeStyle;rounded=0;orthogonalLoop=1;jettySize=auto;html=1;exitX=1;exitY=0.5;exitDx=0;exitDy=0;exitPerimeter=0;entryX=0;entryY=0.5;entryDx=0;entryDy=0;endArrow=none;endFill=0;" edge="1" parent="1" source="KSCz8jUNw5rVyCKfR1MM-7" target="KSCz8jUNw5rVyCKfR1MM-26">
          <mxGeometry relative="1" as="geometry" />
        </mxCell>
        <mxCell id="KSCz8jUNw5rVyCKfR1MM-7" value="" style="pointerEvents=1;verticalLabelPosition=bottom;shadow=0;dashed=0;align=center;html=1;verticalAlign=top;shape=mxgraph.electrical.miscellaneous.fuse_4;" vertex="1" parent="1">
          <mxGeometry x="280" y="808.5" width="60" height="23" as="geometry" />
        </mxCell>
        <mxCell id="KSCz8jUNw5rVyCKfR1MM-11" value="" style="pointerEvents=1;verticalLabelPosition=bottom;shadow=0;dashed=0;align=center;html=1;verticalAlign=top;shape=mxgraph.electrical.resistors.resistor_1;rotation=90;" vertex="1" parent="1">
          <mxGeometry x="330" y="854.5" width="70" height="15" as="geometry" />
        </mxCell>
        <mxCell id="KSCz8jUNw5rVyCKfR1MM-12" style="edgeStyle=orthogonalEdgeStyle;rounded=0;orthogonalLoop=1;jettySize=auto;html=1;exitX=1;exitY=0.5;exitDx=0;exitDy=0;exitPerimeter=0;entryX=0;entryY=0.5;entryDx=0;entryDy=0;entryPerimeter=0;endArrow=none;endFill=0;" edge="1" parent="1" source="KSCz8jUNw5rVyCKfR1MM-7" target="KSCz8jUNw5rVyCKfR1MM-11">
          <mxGeometry relative="1" as="geometry" />
        </mxCell>
        <mxCell id="KSCz8jUNw5rVyCKfR1MM-14" style="edgeStyle=orthogonalEdgeStyle;rounded=0;orthogonalLoop=1;jettySize=auto;html=1;exitX=1;exitY=0.5;exitDx=0;exitDy=0;entryX=1;entryY=0.5;entryDx=0;entryDy=0;entryPerimeter=0;endArrow=none;endFill=0;" edge="1" parent="1" source="KSCz8jUNw5rVyCKfR1MM-4" target="KSCz8jUNw5rVyCKfR1MM-11">
          <mxGeometry relative="1" as="geometry">
            <Array as="points">
              <mxPoint x="365" y="900" />
            </Array>
          </mxGeometry>
        </mxCell>
        <mxCell id="KSCz8jUNw5rVyCKfR1MM-15" value="" style="pointerEvents=1;fillColor=strokeColor;verticalLabelPosition=bottom;shadow=0;dashed=0;align=center;html=1;verticalAlign=top;shape=mxgraph.electrical.diodes.transorb_2;rotation=90;" vertex="1" parent="1">
          <mxGeometry x="350" y="756" width="30" height="15" as="geometry" />
        </mxCell>
        <mxCell id="KSCz8jUNw5rVyCKfR1MM-16" value="Shunt" style="text;html=1;align=center;verticalAlign=middle;whiteSpace=wrap;rounded=0;rotation=0;" vertex="1" parent="1">
          <mxGeometry x="370" y="849.5" width="45" height="25" as="geometry" />
        </mxCell>
        <mxCell id="KSCz8jUNw5rVyCKfR1MM-17" value="MOV,&lt;div&gt;TVS&lt;/div&gt;" style="text;html=1;align=center;verticalAlign=middle;whiteSpace=wrap;rounded=0;" vertex="1" parent="1">
          <mxGeometry x="368" y="752.5" width="60" height="30" as="geometry" />
        </mxCell>
        <mxCell id="KSCz8jUNw5rVyCKfR1MM-18" style="edgeStyle=orthogonalEdgeStyle;rounded=0;orthogonalLoop=1;jettySize=auto;html=1;exitX=1;exitY=0.5;exitDx=0;exitDy=0;entryX=0;entryY=0.5;entryDx=0;entryDy=0;entryPerimeter=0;endArrow=none;endFill=0;" edge="1" parent="1" source="KSCz8jUNw5rVyCKfR1MM-1" target="KSCz8jUNw5rVyCKfR1MM-15">
          <mxGeometry relative="1" as="geometry">
            <Array as="points">
              <mxPoint x="365" y="740" />
            </Array>
          </mxGeometry>
        </mxCell>
        <mxCell id="KSCz8jUNw5rVyCKfR1MM-21" value="Fuse" style="text;html=1;align=center;verticalAlign=middle;whiteSpace=wrap;rounded=0;" vertex="1" parent="1">
          <mxGeometry x="280" y="786" width="60" height="30" as="geometry" />
        </mxCell>
        <mxCell id="KSCz8jUNw5rVyCKfR1MM-38" style="edgeStyle=orthogonalEdgeStyle;rounded=0;orthogonalLoop=1;jettySize=auto;html=1;entryX=1;entryY=0.5;entryDx=0;entryDy=0;endArrow=none;endFill=0;" edge="1" parent="1" source="KSCz8jUNw5rVyCKfR1MM-28" target="KSCz8jUNw5rVyCKfR1MM-4">
          <mxGeometry relative="1" as="geometry">
            <Array as="points">
              <mxPoint x="300" y="900" />
            </Array>
          </mxGeometry>
        </mxCell>
        <mxCell id="KSCz8jUNw5rVyCKfR1MM-28" value="" style="pointerEvents=1;verticalLabelPosition=bottom;shadow=0;dashed=0;align=center;html=1;verticalAlign=top;shape=mxgraph.electrical.signal_sources.signal_ground;" vertex="1" parent="1">
          <mxGeometry x="290" y="910" width="20" height="20" as="geometry" />
        </mxCell>
        <mxCell id="KSCz8jUNw5rVyCKfR1MM-32" value="" style="pointerEvents=1;verticalLabelPosition=bottom;shadow=0;dashed=0;align=center;html=1;verticalAlign=top;shape=mxgraph.electrical.signal_sources.signal_ground;" vertex="1" parent="1">
          <mxGeometry x="355" y="782.5" width="20" height="20" as="geometry" />
        </mxCell>
        <mxCell id="KSCz8jUNw5rVyCKfR1MM-33" style="edgeStyle=orthogonalEdgeStyle;rounded=0;orthogonalLoop=1;jettySize=auto;html=1;exitX=1;exitY=0.5;exitDx=0;exitDy=0;exitPerimeter=0;entryX=0.5;entryY=0;entryDx=0;entryDy=0;entryPerimeter=0;endArrow=none;endFill=0;" edge="1" parent="1" source="KSCz8jUNw5rVyCKfR1MM-15" target="KSCz8jUNw5rVyCKfR1MM-32">
          <mxGeometry relative="1" as="geometry" />
        </mxCell>
        <mxCell id="KSCz8jUNw5rVyCKfR1MM-34" style="edgeStyle=orthogonalEdgeStyle;rounded=0;orthogonalLoop=1;jettySize=auto;html=1;exitX=1;exitY=0.5;exitDx=0;exitDy=0;entryX=0.004;entryY=0.898;entryDx=0;entryDy=0;entryPerimeter=0;endArrow=none;endFill=0;" edge="1" parent="1" source="KSCz8jUNw5rVyCKfR1MM-4" target="KSCz8jUNw5rVyCKfR1MM-26">
          <mxGeometry relative="1" as="geometry" />
        </mxCell>
        <mxCell id="KSCz8jUNw5rVyCKfR1MM-36" style="edgeStyle=orthogonalEdgeStyle;rounded=0;orthogonalLoop=1;jettySize=auto;html=1;entryX=-0.002;entryY=0.098;entryDx=0;entryDy=0;entryPerimeter=0;endArrow=none;endFill=0;" edge="1" parent="1" source="KSCz8jUNw5rVyCKfR1MM-1" target="KSCz8jUNw5rVyCKfR1MM-26">
          <mxGeometry relative="1" as="geometry" />
        </mxCell>
        <mxCell id="KSCz8jUNw5rVyCKfR1MM-51" style="edgeStyle=orthogonalEdgeStyle;rounded=0;orthogonalLoop=1;jettySize=auto;html=1;entryX=1;entryY=0.25;entryDx=0;entryDy=0;" edge="1" parent="1" source="KSCz8jUNw5rVyCKfR1MM-37" target="KSCz8jUNw5rVyCKfR1MM-26">
          <mxGeometry relative="1" as="geometry">
            <Array as="points">
              <mxPoint x="590" y="660" />
              <mxPoint x="590" y="770" />
            </Array>
          </mxGeometry>
        </mxCell>
        <mxCell id="KSCz8jUNw5rVyCKfR1MM-37" value="Ohm converter" style="rounded=0;whiteSpace=wrap;html=1;" vertex="1" parent="1">
          <mxGeometry x="640" y="640" width="120" height="40" as="geometry" />
        </mxCell>
        <mxCell id="KSCz8jUNw5rVyCKfR1MM-39" value="RMS converter" style="rounded=0;whiteSpace=wrap;html=1;" vertex="1" parent="1">
          <mxGeometry x="720" y="800" width="80" height="40" as="geometry" />
        </mxCell>
        <mxCell id="KSCz8jUNw5rVyCKfR1MM-45" style="edgeStyle=orthogonalEdgeStyle;rounded=0;orthogonalLoop=1;jettySize=auto;html=1;endArrow=none;endFill=0;" edge="1" parent="1" source="KSCz8jUNw5rVyCKfR1MM-40">
          <mxGeometry relative="1" as="geometry">
            <mxPoint x="430" y="740" as="targetPoint" />
            <Array as="points">
              <mxPoint x="430" y="772" />
            </Array>
          </mxGeometry>
        </mxCell>
        <mxCell id="KSCz8jUNw5rVyCKfR1MM-40" value="C" style="pointerEvents=1;verticalLabelPosition=top;shadow=0;dashed=0;align=center;html=1;verticalAlign=bottom;shape=mxgraph.electrical.capacitors.capacitor_1;labelPosition=center;" vertex="1" parent="1">
          <mxGeometry x="440" y="762.5" width="35" height="20" as="geometry" />
        </mxCell>
        <mxCell id="KSCz8jUNw5rVyCKfR1MM-47" style="edgeStyle=orthogonalEdgeStyle;rounded=0;orthogonalLoop=1;jettySize=auto;html=1;exitX=1;exitY=0.5;exitDx=0;exitDy=0;entryX=0;entryY=0.5;entryDx=0;entryDy=0;endArrow=none;endFill=0;" edge="1" parent="1" source="KSCz8jUNw5rVyCKfR1MM-43" target="KSCz8jUNw5rVyCKfR1MM-39">
          <mxGeometry relative="1" as="geometry" />
        </mxCell>
        <mxCell id="KSCz8jUNw5rVyCKfR1MM-43" value="" style="triangle;whiteSpace=wrap;html=1;" vertex="1" parent="1">
          <mxGeometry x="640" y="800" width="40" height="39.5" as="geometry" />
        </mxCell>
        <mxCell id="KSCz8jUNw5rVyCKfR1MM-48" style="edgeStyle=orthogonalEdgeStyle;rounded=0;orthogonalLoop=1;jettySize=auto;html=1;exitX=1;exitY=0.5;exitDx=0;exitDy=0;entryX=0;entryY=0.5;entryDx=0;entryDy=0;" edge="1" parent="1" source="KSCz8jUNw5rVyCKfR1MM-26" target="KSCz8jUNw5rVyCKfR1MM-43">
          <mxGeometry relative="1" as="geometry" />
        </mxCell>
        <mxCell id="KSCz8jUNw5rVyCKfR1MM-57" style="edgeStyle=orthogonalEdgeStyle;rounded=0;orthogonalLoop=1;jettySize=auto;html=1;exitX=0.5;exitY=0;exitDx=0;exitDy=0;" edge="1" parent="1" source="KSCz8jUNw5rVyCKfR1MM-26">
          <mxGeometry relative="1" as="geometry">
            <mxPoint x="522" y="620" as="targetPoint" />
          </mxGeometry>
        </mxCell>
        <mxCell id="KSCz8jUNw5rVyCKfR1MM-26" value="&lt;div&gt;Input and range&lt;/div&gt;&lt;div&gt;selection&lt;/div&gt;" style="rounded=0;whiteSpace=wrap;html=1;fillColor=#fff2cc;strokeColor=#d6b656;" vertex="1" parent="1">
          <mxGeometry x="480" y="720" width="82.5" height="200" as="geometry" />
        </mxCell>
        <mxCell id="KSCz8jUNw5rVyCKfR1MM-46" style="edgeStyle=orthogonalEdgeStyle;rounded=0;orthogonalLoop=1;jettySize=auto;html=1;exitX=1;exitY=0.5;exitDx=0;exitDy=0;exitPerimeter=0;entryX=0;entryY=0.26;entryDx=0;entryDy=0;entryPerimeter=0;endArrow=none;endFill=0;" edge="1" parent="1" source="KSCz8jUNw5rVyCKfR1MM-40" target="KSCz8jUNw5rVyCKfR1MM-26">
          <mxGeometry relative="1" as="geometry" />
        </mxCell>
        <mxCell id="KSCz8jUNw5rVyCKfR1MM-49" value="" style="triangle;whiteSpace=wrap;html=1;" vertex="1" parent="1">
          <mxGeometry x="640" y="720.25" width="40" height="39.5" as="geometry" />
        </mxCell>
        <mxCell id="KSCz8jUNw5rVyCKfR1MM-50" style="edgeStyle=orthogonalEdgeStyle;rounded=0;orthogonalLoop=1;jettySize=auto;html=1;exitX=0;exitY=0.5;exitDx=0;exitDy=0;entryX=1.01;entryY=0.364;entryDx=0;entryDy=0;entryPerimeter=0;" edge="1" parent="1" source="KSCz8jUNw5rVyCKfR1MM-49" target="KSCz8jUNw5rVyCKfR1MM-26">
          <mxGeometry relative="1" as="geometry">
            <Array as="points">
              <mxPoint x="610" y="740" />
              <mxPoint x="610" y="793" />
            </Array>
          </mxGeometry>
        </mxCell>
        <mxCell id="KSCz8jUNw5rVyCKfR1MM-54" value="" style="shape=image;verticalLabelPosition=bottom;labelBackgroundColor=default;verticalAlign=top;aspect=fixed;imageAspect=0;image=data:image/png,iVBORw0KGgoAAAANSUhEUgAAARwAAAEkCAYAAAD93Y4gAAAAAXNSR0IArs4c6QAAAARnQU1BAACxjwv8YQUAAAAJcEhZcwAADsMAAA7DAcdvqGQAAEuVSURBVHhe7Z0J3EzV+8BPUkILESGp6IeIhCRJJaUihZQtCkWytiiytFJEpKyhVJZCZE2yJf5okaVE1iyhFEmLmv/9nvfc15n73pl35n3fmXfm3vP9fB7mnHvvvHPv3HnuOc95llMCFsJgMBjiQA71v8FgMMQco3AMBkPcMArHYDDEDaNwDAZD3DAKx2AwxA2jcAwGQ9wwCsdgMMQNo3AMBkPcMArHYDDEDaNwDAZD3DAKx2AwxA2jcAwGQ9wwCsdgMMQNo3AMBkPcMArHYDDEDaNwDIYMsnfvXtGtWzcxf/581WNID5OAy4M89thjYvfu3WLKlCmqx5DVnDhxQtSqVUt8/vnnomTJkuLNN9+UbUN4zAjHYzz11FNi+PDh4oMPPhAlSpSQMnLkSHHs2DHxxx9/qL0MmaV27dpS2cAPP/wgdu7cKf777z/ZNoTGKByP8csvv4i//vpL3vy7du2S0qFDB3HmmWeKggULirVr10rZt2+fOsKQEfLnz69epdCqVSsxdepUo3TSwUypPMa4cePkKOfAgQOqx50mTZqIevXqiRw5cojmzZurXkOkMKW68847xZw5c1RPCn///bc47bTTVMuQBhSOwVu8/fbbgTx58vAgSVdOOeWUwNChQ9WRhmhYt25dmuv58ssvq60GN07tZ2FdKIOHqFixorjiiitE2bJlxeLFi1VvaLBFrF69WhqZL7jgAnHhhReqLYZwnHHGGXJEs3LlStWTci0tJS5q1qypegw6ZkrlYTASY8zs37+/mDhxouoNT9GiRcXZZ58tvvnmGzM1iIAjR46Inj17itdff131CFG/fn0xc+ZMqXgMwRiF41MGDx4sxo4dK7Zu3Sr++ecf1XsSRjnLly83o50Iueeee6TR2KZNmzZi0KBBIl++fKrHAGaVyqd0795dbNq0SS6bu8HqVqdOnVTLEC345TDKMQRjbDg+ZN26dXJ0s2zZMmnjOX78uNpyEpZ9cSCsUKGC6vEfH3/8sZg0aZK8Tsjhw4dFmTJl1NZg/v33X7mP7uvECuC1114rp6iGFMyUykcwYsFPZ9u2bWLVqlWq150ZM2bIZV+/smjRItGxY0exefNm1SPExRdfLKpXry5fM10qUqSIfG3DEvkdd9wR5Ivzf//3f+Kqq65SLYNZFvc477//fqBSpUpSTjvttNTl21DSv3//wBdffBGwfjTqHfzJyJEjXa+PLZdddlnqdR0xYoQ6KhD48MMPg/b73//+F/j999/VVoMZ4XiMQ4cOiaNHj4oaNWrIKQBDfTejMBQqVEjkyZNHWD8KYf1QZN/pp58uTj31VPnaz7z33nuiV69eYv/+/eLPP/9Uve7kzJlTCjBdZSqm27+ItcI4bzBTKk+xfft28fDDD6cbvVysWDFpm+nTp4+4+uqrVa/BDZTOV199JV/v2bNHugtES4ECBcTcuXPN1MrCKBwP8eqrr8p0CaHAr4Ynb5UqVUTTpk1VryFS1qxZIyZPnixHg9jBooFRpDX1EjfeeKPq8SdG4XiIDRs2SEMnqyU21113nWjZsqV8zbC/devW8rUh4zBlwm0AUEKjR4+Wr9Ojc+fOYujQoarlT4zC8RjYCn766SfVEqJw4cKiVKlSqmXIag4ePCi+//571RIyJw52MzeMwjEKx/PgF4L7PeBqjwKywajMED9XrlxymkAKC8SQAtetWbNmqXlvAIdJ/JOIo3IDtwMYM2aMGDJkiHzNNcffieucN29e2edbUDgG7/HXX38FPv3000C3bt14oEixlInamkL9+vVTtyGtWrUKWKMjtdXf7NmzJ9CoUaOg62PLc889F7AUiNrTEA1G4XgUUk44fyjpKRzkgQceCBw6dEjt4U9QNk2bNk1zbXTJkSNH4I033ggsWLBAHWWIBKNwPIg1lA9YQ/40PxKnwpk1a1agYMGCafbjx/bss8+qvfzH0qVL01yTUFKqVKnAnDlz1JGG9DAKx2MMHjw4kC9fPtcfx+TJk9VeJ/nss88Co0aNSrPvpZdeqvbwH06Fg/J+7bXXgvp0ufjii80UK0KMwvEYDz74YNCPgXCGF198MbB79+7AP//8o/YK5u+//w6MHj06cPrpp6ced+qppwZat26t9vAHhCBs3749zahvzZo10ibGNUQaNGggMyXq++TPnz9QrFixwOHDh9W7GdzwXXoKfFUIqPvuu+9Uj3c566yzhDU1kjmOyeRnu987wSGwXbt2strDueeeK/tY2rVXXPwAXtqEgxCgSXiIDm4GhHxwDRFW9Bo2bCjKly+v9khZ8cMT+fLLLw9aJjc4UIrH83zzzTeB8ePHBy666CL5RCpXrlzAUjxqq3fQRzg1a9ZUvZHTpEmT1OPvuOMO1ettNm7cGKhVq1bqeTslV65c8t5ZtmyZOiKFXbt2Ba677rqgfS0lH3j11VfVHgYnnlU4EydODDzxxBOp4rwxkMqVKwdWrlypjvAGusKxnsaBadOmqS2R4UeFg5HdPudwct9996kjTrJp06bATTfdlLoPK1eG0HhG4WCfYJnXliJFigTdLKGENARewmnDeeihh9SWyPCbwvnyyy/laFe/ZqEEBc69tWrVKnV0Ctb0PDBz5kwp1lRU9RrcSCobjp1qwZb3339fXHrppVLIxPbRRx+liin0lgLJoCIpzkbyKK4jUc02Xk9TYd3/8j6xplSqR8higdhgkPvvvz8oEfqPP/4o76277rpLbNmyRfUKUbp0aZl4CyHLnyEMKXon8cEZrVmzZq5PnoxKgQIFAlOnTlV/wRs4RzgIU0pqKK1fv17tlQIrMvQj1FPSj/HDsjg2GP2ckeXLl6utKXA9Sbbl3I9VPK7bjh071J6GSEgahUNWNeeXHok0btw4UKNGjTT9hQsXloZAr4FPjZszH4LxE18cW6688krX/ZBOnTqpd/Qubv5HGH0XLVqk9kjhjz/+CNSuXTvNvghTUEPkeFrhtG/fPnDixIk0aR/PPvtsWZ3Sq7z55puB3LlzB51zNGJfN6/DyM/t/C+88ELpha2D/03fvn3TPLyMwomOpFE41pw5ULdu3aAvOz255ZZb5I3ivEmKFy+u3tW7vPXWW0HnHKl07tzZU85rrEChFJzC/XTs2DE50mP1yXkdLrnkEteQha+//lqubrIP99GKFSvUFkMkJI3CgR9//FHOmwsVKhQoX758qv0BWbt2bZqbBiGJtbOPfb0Oq3bjxo1Lc+6h5Oabb5bX0UvKhiXqc845x/V8iYFiORsOHDjgGhnOSqebQrFtX5s3b1Y9hkhJynw4rFCxeqB7znIarDZYN1FQAion5DYhj68fyrCyOmVNjcKW+uUakqeX1ZVQnsjJxl9//SWz8HXt2jXdFTq8rMmIOHDgQJkPmpVP/RhW6shlQ0kYPLf1fEKGDIDC8RJ4g7LCwqk55YorrvDtU8lStGmmCHhaf/TRR6rlHRh9uH3/4cRSNqkroddcc43rPm6Of4bo8GTGv759+8oYIh0y5lNwngTiTigJgo+Fk/bt2yd91UQqDixcuFBW2ty5c6d47rnn1BYhJkyYIAu9MQLCl6RBgwZqS3LDiK1ixYqqFTkPPfSQrLlOaZgOHTrI3MU6V155pbyHTKWLTCDVjofAC9S62dI8nXr06KH2OAnJk4iIZoncuT9y9913B5555hm1d3Lx22+/yXOzfhyu5+YUYszY3+lFm4w4Rzjk9sGepYsdU+eUtm3byvfAe5j9dB8cRj68tyHjeErhfP/999IYqN9ACEGM1tNd7RUI7Nu3L1CtWrVAiRIl0uzrlLx58yal0rnxxhtdzyc94fpxHZMZp8JxUxI4QTrdJZCcOXMGhYMQK3XeeecFypYtG9i6davqNWQUzyic//77L2BNHdLcQCxvsvxpQ85ebiDnfuGEnDIktkoWcAdw5mtxCr5IRYsWlR6zzm0oWVYEkxWnwuF8yPnjhLinX3/9NTBs2LBAnjx5Uve3pt9Bq3VHjhwJHD16VLUMmcEzgR+sxtSpU0e1TkKOE8rZ7tixQ3zyySfCGu3I0h46lStXFrVr1w4SOy8MsCpm3bCqldh8++23Mi+L9d2qnpQibM7zGzlypNyPqgS09dwuloIWN9xwg2olH1SecJ7PypUrVeskrMydc845sjjg888/L/Llyyf7V69eLZo3b55ae4rVKVPNIotI0TvJD08wTkcXcvPiMfvDDz+4JgxHrr/+eukE5mT48OHyyWjvR+Q075PoOGOpiISOJP0lDnD6cckeS4WvFSMV+3wY1TKSCeeox9RbvwY4DRqyFs8oHBRLz549U2+WNm3apFYfcJurI9ZTPLBhwwa5jxvOWBvSDyQ6GU1P4VQ4OMwRTpJM8Hk7duyoWinL/s54sUqVKoXMgWQUTuzxlNGYeTa1mBC7vhIRwXgl6zcSTzv2Sc84ytxdP87LCmf//v1pXPwTPR8OtjlGqLYQ/Y/titf9+vWT+/BAIcm5fl5lypSRxmAnRuHEHk8pHDcIg9BvIgTX9EhwKhyqIST6tEpXOKzEYRSNFIIT7WP5kf7yyy9qS2Li5v5gC5UWcHd455135AqTc/u5554rt991112Bn3/+WUbHszhgbyehvMnel/V4OlsQTm/OhNgVKlQQlhJSrfBwvI714w1ZNzoRIfE3RtGMQJhD/vz5VSvxIIxl7969qpWWP//8U4a4tGjRQhrSnZAgnu0zZswQ1shIvPbaa3JxwKZ169bS+c+QtXi6tjgZ9KnSoMMKRNWqVVUrPMWLFw/yQCZOy3piJnQ8Dd6yxBEBGfyeeOIJ+ToSZs2aJTPaAceS9S5Rufnmm6UHdSzg+3355ZeFNcVUPYYsQ45zPAoJtpz+KJbCUVvThxy29nG33XZb6moWpWC7d+8uxRoFyb5EwWnDyagk+ipVnTp1gj4v38+gQYOk8L3o25xyzz33yNQSbtuw/UyaNEn9FUNW43kbjtOxLRqFQ2CjfdyAAQNkH2kfrr322tT+KVOmyP5EIasUDo5wiexhrSscvKp1L2DCOmbPnh0yJa01rZZhC+zjFGsqpt7FEAs8r3Ccme/IWYtXshO3Gw1PVJbUeSLieUr1RWe5GaotJlIEelYpHEaG5IhJVHSFEyqKG6P3nXfeKVOr6ueGeLEmWTLg+RTzGAyppmiDpzE5cTAI61K2bFn5v+1dCniiEkE9efJk6YXauHFjsWzZMrU1BaKL8eRNFLA75c2bV7XCw3XBsOxGvXr1xAcffKBayQlGb4zCGJB1z2MgSj6ZFgC8gqeNxjYzZ84U1pNOtcJjDc9lCgLKzuigjNq0aSP/t+EmHjNmTMKlKyA1RySljB999FHx7rvvynQMTkjYlchlYkipQaqN48ePC2uKK0M1ypUrp7amhXIw1khVWCNc1ZOSlqRp06aqZYgLcpzjcUg14DQyhhO3Uq3OhNs4Ey5ZskRtNWQHulEfr/Gnn346cPDgQbU1LU6Pc443xBdfKBywplZh60frgkOZNZJRRwakV7IzNzKJuA3ZizXlC/pOEHIzd+vWTe0RjFE42Y9vFA6QcgFX93AlVEi6xT56OgKW1/V9WDImZMIQP/AGJhmWLZ999pmMn2MJW/9uEIzE7EMAro5RONmPrxSODYqndOnSqcKKBStSiHMFi236TYoQeW6IDyRLq1KlShp/KtoUreP7mjZtmgxV0Lfr++mib/ODwsGNg9E9wmoe14AsCLT37t2r9oofvlQ4kULKi5deeinoJiW5VThYIp8+fbqUefPmqV5DRsDRMpztjXgpO/UGdbhYAifg1G1fpzC9JqOA13nvvfdczx8hyDXeLh1G4YQBr1XnlxQqwrx///6BF154QdoQ7H1J8WC8VjMGQbJ4D+vX3k2qVq2qjkiBaRaKxG1fW+rVq+f5KfHcuXPl/ahnMnQT7td4Kh2jcEKAZ7Hzy+ratav0YrVhKN+iRQspzuG6LRRTmzhxojrCEAnkMartqOV95plnyvLMiK7USUlhfwcI0wQc/ux99SRc5MKhzw+5iUlLYp93esJIJ17TK6NwQuAcyj/yyCPS25hhO6VeEZSJvk8o6dKli3pXQyQw+nBeQ1YKbbiezu224K6AZ7gNymXNmjVS3DI7ehGmUQULFnS9Pm7CSP748ePq6NhiFI4DcuDwdMiRI0fQl0KuFEY8oUYyumDApCA+cu+995r4nChxS3Jv14Pn+7n//vvTbNeF76hly5Zyf79BIQFy+djXgtAbcv78/vvvIQXDcrwwCkeDpVdGMvrNG6kwImKoj3z88cfqHRMLDKxU4GSVbv78+VK44RINDPPO68sTG0aOHJlmm5sQ8+blEQ3fm/0d2hU2/vjjD2m30a8DddMTCV+ENkTK0qVLhTWfVa3IuO2222TumFdeeSVbQwGoSvHhhx+qljv9+vWTlUQJBZg0aZLs69mzp7BGFPK1DrFjJKHKDnbv3i2s0aFqpWApHFltY9SoUbIiqg25a6xRpHxNLp9t27bJ12ApLjF06FBZVdRLEHZC6MqLL74o21RQbdWqlet1sxROmu+XCiRvvPGGap2ERGTUWY8lRuFoRKJwiFPSMwaSlKtkyZKqFT+sJ5sMTLThZps3b55qZR4Uk/1DdkK8GXFJscJ6eotevXqJYcOGqR53hWOXKLamDLK9YMECmTSLH5kNgbex/KzZAVkr169fr1pC3rPjxo2TisV53cha2LVrV/lAtEHhoKScEOw6YMAA8eCDD6qeGIDCyQzWTS+TT+Mg17BhQ5keIVnBKBwqeRN2HUshyWFrdoL/CNc7VKnaeAgF9PgMiF4wLithpUmf3rLMC6ym8D0gbrYxvMD1z0o1Cq9x+eWXB50jcsUVV8ik8pSv1vupJEr+H70vnDB1ffPNN9VfynoyrHDwyp0zZ45cruSDUskRQysnyIe2hdWBZAKFwrzXKXr1zniAPYm/i0Obfj2dN0g0Yj3BXPtIUobXrnNbJIKBXP98PIDCBVBGg/5dcL+lBwnjqbRqf7bHHnvMkwZ7N4WDWNNquZqn11PLiHDdYrVqlaEp1bp166TNIJKUD9g1rIsgh3vknDGEBxsEeZSpiEllzEjB5kIO53C8/fbbcvrx9ddfqx4hNm3aJF566SU5FcHG4wa5Y6wfvWqlT+7cueWUD/tKrOwnTCms0ZVqpYA9asWKFfK1pfzkeT3wwAOy7SWcUyqbCy64QE6tsVsxjQoFeZ6oSKtjDQxk3iCbWE1Fo1Y4JKAiL8zWrVtVT2RUqVJFjBgxQv5vCIbE7JSjhenTp4uPP/5Yvg5HxYoVRbVq1VRLiMsuu0x06dJFtUJDEnn9OBKlY/QOx/jx48WqVatUKwXyypDcLBzkCcLwjPHWmgKq3sxDArW2bduG/ftNmjQRU6ZMUa3kAcVORYpwpZaxI/JwcP50eehwL51xxhli6tSpso+HDIqEhz3J5yBXrlxBdh4gidyWLVtUK4EUjl4VQAdDnv40Y8WAkY0ONzpKp1KlSqrH36BcUODWnFkaSsPBCES/bihuVpuiJSMKx41FixbJpyyfu3fv3qrXHbIH8jfIjpgV8PTmKR6KIkWKiLFjx8oVxGQCJcLq0zfffCMVAgsSoTjttNNkPX0nderUCXpgYWQnSRmjX2rIhyJeCicqGw6u/ETYcpgtxLvgC+CctxOfQT8GRn3/REs6nl2QoB3HQP3aOAXDMNcQySrXc2f0e3rVR9ODPM/2Z0QIH9Df3xac8fBRev7559WRGYdI51B/BzsiqSuSCQrucW303MsYv8PVQcdWqp+3LYR6ZKSAX7yM7RErHLwRiS/SPxQrJhg3w7Fz586gY7gg3DB+A+MlOXZYMcBr1mnA5YeCsQ8h/w7XLRbxLVmtcJxQYpnPTgUEzkWvZomQi4jzt4b88npk1BjP38FAzN+wf6j8z+pVshEqVAMjvDWKVHsFE0rhICzk2PF7hIlwvZHXX39dXnNdqMzBNv39iBmMlUNoxAqHp5d+UrifRwIpHvTjEGvIqLZ6H1ZOKE2De7nzOtiCEgpVeSCribXCcWJNDWQ+G/3prQs3e2Y/A6NF/kaypHzlgcs9gVB2mlgmVnndrg8PIvZzBpyGK3OMPPnkkzIMBKXltj2U8CC0pmHqr2Q9ESkctB1LZfoHizSXCCMj0gHox/pF4bhdN1sYwhLvgxAdHS/irXBsuA7O+8AWpkcs//shinvlypVB6WqJ1N60aZPMuxQulQRR719//bV6l4D83tz204XR3gMPPOC6zU2onf/aa6+pvxAbIlI4zmkREo2vxbp164KORVmRt8QGuw4aGYml01E8Ib3lww8/HHTetmCbsR3Z4k12KRxgGvTiiy/KwnX6Z7Dl9ttv93SeGmxLOOg5z3vIkCFyu1v+JV0owMhvCdwUDlMhvd28eXPpw9SuXbugfjfBxjZ69Gj53rEkwwqHKOhIcSocxI5QJRE2w2q7n6na2LFj5bZkhaoPPC3087VlwoQJgWXLlqk944+ucJ566ik5j483PNFxEHQzmns5Ex8jOD2Xjy22wmEK5NzmFKaOTMPcFM7GjRvT9KFwGBxwvUONMHnQk+85HkSscJxpGQoVKqS2hodVjBIlSgQdO3PmTJmLlqhqtzkmP1aGnfw43KpkJiJ8TrxhiWYONR8n+VM8UwG4gfcuxn++T76H7GTbtm3SNui8tzBg8v2zopUs33+kkKOZXEr6+fKQ5SHE/YMxXd/mJvyeSPSv93EcCxM8rPV+FJTtpb1//35ZMskpKLp4kWGjcaRTqlKlSgUdh2DDYdnc2e8mlOblxkx0CPNw+/xO4cZKhvOJJ4sWLZIPMLfr1adPn4RMoREKFAEP6HBgt3PWvMdQywILvw2nK0kkQipbzBRM284///ygbcS8JQoRKRyWLnv16hV0Eu+8847aGhq3k69WrZqM+WD1Qu8PJ2XLlg28//77cbU3RAMBc6wmuH12N+F8vvjiC3W0AcgJ7XatEJZuEz0mCmMw9yj3AaOK9BZGmjVrluY8x4wZI7cx7XZuw/+N+8bZr4s9UmFKr/cnncIhIth5gSJZFqecin4MYjv+OTU8QnVLty/ClltvvTWhVjJYhn322Wddn86sDnTu3DlNvy3clKtWrVLvZAincBCUTiJDYUT982Lg1VeVnGBb0fdH8J+BL7/8MnDNNdcEbeP9GQlSb0vv14WVLiDJ2pVXXin78HuyFVkiEPGUCic0klTbJ4dfRdOmTV0NvPwQ2eY2NEThPP7442nm7c8995wcUvJ33n333ZArGSwjxnMZORR8qeTPdfuMpLLgM7oZ23XhprBXHfwMGQXS8yux77dE+vHoOBUOwkglFG4KB9sVMwno0aNH0DYM7IygMDHoiyy66HW2sH/yO2JRJpGIWOEAy5rkvNFPEs9hlvp0CeWyzw+xbdu2sp6QcxvOTTr8WEO5r7N0ypCVvzVu3Dh1RPzA/uQ0hHMT8GRCbIWIwRzvTn0/p5QsWVKeB0uYfoTp9cUXXxx0TZiK29fS7X6LZDofb7DLOe2V/A7cPIXJyRzqYWWXvdmzZ0+a0tR9+/aV23AcdJshJENhv6gUDjAKqVGjRpqTDSfcUPikoNWZFrntw7Kd09jGD5a8HBhaeQ9bGFraLvNceJ5+elb/WMKNpSepRkhUHcpF32lsDyWM+HhKxiqhVaLidHZjVKwv1XO/NW7cOMhGxkggu1b8COWhZpab4b9u3bpB54JQEJH7mvuD4zAYO0f3uuj3Af4zesgB9zr+XdizWF0qXLiwrH1m/y7SCzNKBKJWOMCU6Kabbgq6UKGEqRGgsRkSu+1jC0vkkdg1nAGkCDck8TuxNMYy9HeWhmEUhl9EKCJVOLa0bt1aLl/6ATxhncZ2pgJuOEc6SLzqfaHYuLcQlB9/277fEL2QnJspgFEZtj5nfzjBpgXOoErEnoZjqM6OEX5myJDCASzijz76aFjFQw0nRjXgVnTeTfC/GDhwYEiDG/4GaHW3YxFsARzPEyCrYFjMezoNdtWrVw989dVXai93olU4CErnlVdeUe/gTWbNmpVmBZMRQqglZUY9zvuNkWY8lM7QoUODPqdTqNjB/cG9HknIgS2MjDknxDlFtxWOswoDksx2vwwrHBu8RjEcI8RhMLSz28zPAZsLxl79orGy07Fjx6A+XbDSO5UGBb4i9VG44YYbArt371ZHZhyGwSwr6u/NjcL5RTKa4jPcc889QcdHIgylvQperdwn+vmibCJxe8B+oSsdRsV8F7GA+43VxvTK5drCA5ZpTbj72ha8iwk6tXF6ILOKiQ2L0ZXej/ha4ehwcZwXgz63FQiMxHw55PxAypQpk2afcuXKpdo0mAs7n4jpCX+XUQjL7RkBhzNn/ljm0emNapxwc+nvEYl4WeHwANKnHiwh2w+nSMB+gnHVPh4XDWw6WQk2xUgrq+rClIv7un379q7bMUdwv2Ob0iEsgfPQ90Ux42lNYKvdh3tAMjlCOslSheMGthv9ItriNPhRs5unnp4nhgTdrPhgPHbm4sFozKoX2f0RhrPMlfV99H1tC380MLrR34eQC0Y30RKpwmH1DqWKRKvUkg2mSIwccQTNSDwXU3p9tMu1Y/XKeV9FC2EATPecoxruIb4XfF243/jctJ3Te2w72Jt69uwZ1I9Q0SScAyOrlfr+5PqhmB/nZN/n/BaSmZgrHLfQBp5OerS4DiMfpkMIdhwu8ODBg9O8B+H6TnAKtI91Pi3wa4gGfvB6nBfJnjKaSS5ShROvnDhewc2QnNmRDtMc53syqmXE4garo5GW7CEnkl0l0w1WspxxVrpB2gvEXeEwVw130Z3g+6MfbwtGtk8++UTtlRYcxFiKZ5mRG4IhcqSwDO+c4jHCyihG4cQGXCYaNWoUdA0ZYbBAkVHcgonxHQsHK1X4UzmPcxOCe8PBiif3rS1eW7GMucLhiUP4OxcbH5xo46E6deqU5kuzBaVAsbRwcSv4LXBDRIMzJIHR1Nq1a9XW6GG05HRVdxOjcKKHH6TuAY8wtc5oXiU3hRNJjh43T2M+l9MJNj2F43VirnCA+fbChQulTSQaSCikOz6FElJ0MnLKLEzhateuHeTnU7p0aRkBnFmYv+ufmWRTzrSj2AQy83T2K4TDOFcCUQAZwalwGNlGUhSOh55z5Y3QBvyKdM967ic/h7PEReFkBPK2sMKkf4F8ceSaCZVvBlfwjCblJt2G0+iMJ6ftR5RZGDVhC6DCJSs0rL6R75jppb4a0q9fvzQrGIb0YdEBfxj7OnKvkE8nWiOrU+GwOhpJ1U9wrmhSPQGDLw8SvZ/7LBHiAbODhFU4zhEBQtg9sCzIKoFe1tUWRigZ8b8hGZj+PkzXsnr+bK+qOaHUjv63X3755WyvYZ6MkDdZH00gBAVHs4yc0SkVuGU6YITDfeS0CWbVgyzZSDiFwxMfd21n4BpDUZSCDpGzziA4DMTRpkvUa6TbQo6beIFycaZ/TNTcP4kOfi76dUSimcJkRuGA0wRgh2pwP9l92DIZkfmRhFM4bqEAzI1DKYDFixdL3wiGqQxdM5I20+lJTB6feGflww6hGx4Z4Rmih+mo/l0ihIqEcsNw4paXJysUDvcT9ykSzft5jaRQONddd53aGhoiyDNSl4hwDBwM7b+Fi320xu2sQs/05mVP41iCvcUtm2R6S9s2OOY5lQ6jz0ggpEGPBGfRw20K7WcSTuEwksGr044iJuYqGr+daGDqphugMVLj95Nd4EKgR0/j24FbgCE6UBp46OouFdxTpHuIZKSDHxYGfvtYPH4xPiOhjudvOdOWhEvA5VdyWBcmobj55puFNSwWffv2FRUqVJDF3YsVK6a2Zh1Hjx4V3377rThy5Ihs16hRQ3z++efCUnCynR20bNlSDBo0SJx11lmybY20xObNm8X+/ftl2xAZuXLlEqVKlRJly5YV55xzjuz7559/xJgxY0SvXr1kOxzWFFu8/vrrqiXEsWPH5Hsi3bt3F+vWrROW8pHbfv31V9nme+K+tTnvvPNE/vz5VcuQilI8voJVC2oycfq2JNKqgTMXdEbiwAwp4OWtxzvdcccdEdnn8Btzy0VjC+E2+Ey55a0mxov0noa0+FLhuK1kJJLCIS2CbldixS5UUXtD+jj9Yxo0aBCR68S8efNcXS/CCd+bcd4MjS8VDnNy542CG3oiwWqb/vkmT56sthiihYUI3TaGhMos6ISFCF35pyfZXVww0fGdwsEF3i2nLEbCVq1aqb2yH+fyLknavRY5HE+cUeAY5CN1CCSOTj/WTXDWJLzBa5VCs5qEMxrHGgyx1nmr1kn+/fdf8dZbb4mcOXNKmTBhgti6davaGn/4DBs2bBDnn3++bFtTAPH999+7fnZD+pQrV04UKVJEtVLuA0s5qFZ4rrzySml01uWmm26ShulOnTrJ9qOPPiqsqZuwHmbqKIMrUu34BFKC6ukycCh05pLVBTd5hsikeswumErpnymeHtBegiRfzqRY8SrgbziJrxQO6R/0G65Lly6BadOmyRSkpLnQt+lCwToy5GcHRLDrZXlYOTFEj9tCQTLUcfIavlE4zOHtJEkYAcePHx9kOCSeiT6nUrIlMwm4MgvL4vbnINrcDmI1pA+FCLHNudntSCOK7cUQP3yjcHR3dQywoSCyl9pYJN3Sb87sVDgs4RIFb38WcisTkmEIDYG+fIfprTDhae71kjyJhOcVDqs9ZL2nOqd9k1GCIz3s/LIkTSdGJlzy63hATl09MBA3+kQseZvdoJwZBTrTVCD08X06E6QztTbEB88rHJaS9ZuLp16y5ppxpuIwsTrBkMoVhaJfI+Tqq6+Wtax69+4t9yNiW4+hI/NiRnIoGaLHdwqHqhDJyosvvhhki2jevHlg3759aquBsAX9u+bhQlClW/AvlTIJ6LT39Xuu4XjheYXjzMKWzAoHKISmn0+kHrN+YO7cudK2RSwT6T3T+671pGtG4cQHzyscPc0AkkwKhzpb5DjWwbZErl77fFiyz2geZy9CPpxIv2Nd4eBuEKqevSHr8LSnca1ataQHsc3QoUPFFVdcoVqJz4UXXii6dOmiWinkyZNHVKpUSeTOnVu2v/zyS3HNNdfI1wYhcuTIIapWrapa4Vm2bJl6JcSWLVvEb7/9plqGWOFphfPLL7+oVymQG8Wat6tW4sNnzZcvn2qd5LbbbhN9+vRRLSH27dsnNm7cqFqGSClYsKB6ZYgXnlU4ixYtClI4JPOyhs2qlfxUrFhRxvLAgQMHRJMmTcTKlStl2xAZefPmFXXr1lUtIWbPni2OHz+uWoaYoKZWnuPuu+9OnZ+XK1dOpo30Gm6hGobo0KspIH4t3xIvfBEtXrJkSZk20muQ7lIftX344Ydi7ty5qmUwJB6eVDikC9CNxV6FadWSJUukIRl27twp0y744dyzCh5EvXv3Vi0h004YYocnFc7zzz8vpk+fLl+T+PqSSy6Rr71I0aJFZa4Xm86dO4sVK1aoliE9WO0799xzVUuIvXv3qleGWOD5KRVLy0OGDFEtb8I06oYbblAtIRYuXCj+/PNP1TIYEgdf2HC8Dsu7PXr0UK2UER5iiIzq1auLKlWqqJYhlnhO4TCdmDp1qmoJ8eqrr6pX3gaHxtatW6uWEAMHDhRPP/20ahnCUa1aNZlG1BB7PKdwfvzxR1k8z4bCen6gcOHC0ohsQ1E23ZPWEBmHDx+WBQkNscFMqTwEYRDt2rVTLSH++OMP6YVsSB+S1WNAZoWPiqzmusUGo3A8BBUD9KoBX3zxhXjmmWdUyxCOO++8U1x00UXyNdetX79+8rUha/GUwvnpp5/EjBkzVEuItm3b+q5sx6233iqKFy+uWinBnatXr1YtQyhGjhwpRzaG2OI5hTNlyhTVSvFJOfXUU1XLH/CkHjt2rDjzzDNle82aNSbGKgLuv/9+Ubp0adXKWn7++WfRokULMXHiRNXjX8yUyoNgKP/oo49US4hBgwYZpZMOV199tShUqJBqZS1E97/77ruyWN60adNUb2ScOHFCVK5cOVU+/vhjtSU5MQrHo5ALaMGCBfI1K3c4BvJ/vPjrr79k/iGW5nfs2CHKli0rQzCQxx9/XPaxkhYJ+/fvl5VH48nRo0fFkSNHVCtzbNq0Sf5/8OBB0bRpU3kN1q1bJ/sigWmxLYzENm/erLYkISqI0xNYX2JQ5C+1nv0M53/ZZZelXg/rKau2xJZ//vlH1s7Svws3oWbU0qVL1VHurF+/Xkb7k/Sc8j2xpGbNmkGfb8iQIWpL5tAzC9rC+ZASlfMLB9dSP45KrMmMUTgeZ8SIEanXg9IygwcPTiOU0clKyCusfw/hJFwlUUozU3HB3pfSzAsXLlRbs554KhxbOD++g+3bt6u9gzEKJ4ExCictGzduDNx4441B18Up+fPnD7Rr107WUc8s/Hjy5s3r+nfchCf98OHD1dEp/Pzzz/Lz6MrGlgcffFDtlfXESuFQaE9/XzepW7euLDftxGsKx9hwPM7333+f7nIv3rVjxowR1g0vMyVmFGw2zz77rDh27JjqEeKhhx6SHs+2OP1bsJPohlAcF8nCx+explCqN7mxFLl6FZr58+eLN954I8hx04t4RuFYyjMopaj15PTdkrgTjLIkB4/UaxbDLMvqy5cvl9czWkh1qisbwJmOnDO2PPnkk1LpkDYE+I7INQ0dO3YU48ePl0v5brCSZI0WVCt5iNT58r///pPn36ZNG3ktbbHB2Gxft6RFjnM8ACV9OR1bpkyZorb4k7/++itgjTiCrkk0wlA+I9SpUyfofZgaHTx4UG09Sd++fQPXXXedrBtm88ILL8gyvfrxujDlyQiWAgssWbIkXalQoULQ34uHDSca4ZolO6fwj3UySY/1AxGnn366agnpAEhicb/CEmxm/Ereeecd0bx5c9WKHHyAyMej0759exlYSqKr9L6TAQMGyCVzWL9+vfj888/la2CElJGAVBLo817RQh6lrl27qlZ4OGeyLbrBe+AmkFluv/12Ua9ePfma60hWBLIEMPLT+eabb+TIUU/MljBIteMBzAgnGJKB69cjWgm3ehSO6dOnB6wpkut7FihQINC5c2cprEClx5dffhmoXr166vFU1IzWaGpNUeTf1T9HpBLpCIflba6X23vESlq0aCH/r1y5cuo1tYWR4w033CBfHz16VH3KxMAoHI+SWYWTJ0+eQJ8+fdS7Rce8efNc31OXyy+/XE6/wk3dpk2bFihWrFjqMeXLl5erbtFANc2LLroo6G9HKpEonMWLFwcuueQS1+MTQbgPEgmzSuVR9JSjGYHUFtaPVbWig2nVnDlzZDxXqMKDTHGYhoT7nLt27RJ79uxRLSGnLHqsXCQwlSOsg6kYn4fpDVNFXiN8VrIj8pqqndFCnBSGXfv9DOExNhyPct5554lDhw6pVvSwGsKqUWZXhYYPHy7efvttueq1du1a1XsSIttZincrUki2xm7duqlWSlZDsgHYaSSyGmsqIlfobKKx4diQrtRZNYN0F6xAZQWUPNKTvqcH4S358+dXrQQAheMFzJQqmDZt2gRdj2glIzac//u//wtMmDBByuzZs1VvCkydKNyHfcH5t+644w61VzBMaZz7JqPjnzXyCXrfSAU7jG2rscU4/iUIDIc7d+6sWkK89957MujPr/Tv31+9ih9ERJNXGSEXkZ5bOmfOnOKtt96SeWdq166telMguHHevHmqFRpGNnfddZdqeZdKlSrJ749rhV+Ol/CMwmEZEIcpG7w7WRr2Kzg+vvDCC6oVPa+99pp6lTFQ9thxnBA1zjSrRo0aqkeIrVu3iqVLl6pWaJh+6bXAvQj14slnhIPk//73P9XrHYzR2KNgg7n22mtVK3LIkDhr1qwMJZ/v1auXuOaaa1RLSHsLT2lsGraQp8eaQqVJzxBJZkZsQH379lUt78C5v/nmmzLtxCeffOLpChJG4XgYXOFx/orUyIihmVFJ/fr1M5SaFUdD/h7TJyCnTIcOHWTbFpQN4Ra///673AdDPzFckUwBqR3lpRzN9vfDVPOBBx6QI5oSJUqord7EKBwPww90w4YNMuNfOK9jpl+NGzeWUx1yImeG0aNHi1atWqlW+hCsmNnpW1bASpI+Bb/44otdV86yChQtGQD5fnxVlkYZjz2BSU8RGlaOevToEXR9EGskkyY9RGb5888/I1ole+ihhwInTpxQR6Xl888/D1jTi9T9MxpLFQmsfumfLStXw5yrVJZCDlgjOrU1PKzu6ceafDgJAl8MOUX0L8conGBwHXjuueeCrlFWLf06OXToUKB9+/ZBf8uWRo0aBd57773A4cOH1d6hWb16tdwXiWXyrVgqHDsJ2i233CLP46efflJb0ufff/8NDBgwIPVzJbvC8YzjH6fxwQcfBDn7EcR2+eWXq5YBKBlDaVsb8uXEaupAuhC8hZ1QdA5JJEjN0aBBA/HVV1/JtqVwxKhRo+TrzGIpern0j42sWLFiqjdyjh8/nprHGBtPQjnyRQsKxyvwNJg4cWLq0+C0007LcJoFr4Jznn19ChcuHDK1pd/o0KGDnF7a1yYrRziGk3jKaIzznx67Q7iDITQYeGMVJpBssGRv/R7ka1b1zMg4NphVKoPBAUvVLNUbsh6jcAy+h5zKtqczEd89evSQrw1Zj1E4PoJ8w3r4hyEFDLq2UfaMM86QmfUMscFzCocbRs9Loq/I+B1SJOBoZjBkF55TOCxtdu/eXbWE+Omnn+TyuCElwBXvY4Mhu/D8lIqMcb1791Ytf0Ms0/XXX69aBsBPSE+6ZYgtvrDhMMKJpBiZwX989913Yvr06aolxNNPP61eGWKBJxUOwYOki7QpUqRIYpbMiDMEDN59992qZXCjWbNm6pUhFnhS4VxyySWicOHCqiXEl19+GXXybS9CSojbbrtNtQwY0e00GTBt2rSo8gUboscXUyqKkJGbxe/gSUuVAUMK5P5p1KiRaglRsGBB35eHjjWeVTiUH8mXL59qpdhxSPxkMNiY6VP88azCIdPc4MGDUzPXkaRbLxtrMOg0bNhQJt0yxBZPT6nuv//+oOJm1BkiHYPBQL0r0j7YkMOZJO2G2OJ5G44ePU7i7t9++021/EmoSph+Y8WKFakF63goZaTqpiF6PH+VndUBGOHYN5rfIGn3uHHjVMtg06lTJ5lb2RB7fKfWW7RoETSU9hPUC/dVwu4QrFq1KnW1DvcJCs8Z4oPnFU6BAgVE06ZNVSuFRKgSkB3g+Kc/yalO6oVlctKCRhqewH4PPfSQ2LZtm2xXqFAhqioThszhC4UzcODAoCXQESNGqFf+Ake3H374QbVS8uOihJIVRqp4TqNAHn74Yfn63nvvVVvdwXZjgnmzEZlo1AdQloPTRYoXL656/cWRI0dSrwEyc+ZMtSU5uf7664POx5Zy5coFHn30UbXXSRYtWiTzONv7mZzO8cc3CocE6y1atEi92ahxFE25Di9gjXBkrSf7GuTIkSPw/fffq63Jx2+//SYfHvb5OIXzowzOd999J+X1118P2l6jRg31ToZ44RujMcuelStXTvU+Zi5P9rsdO3bIth/ACVJ33WeKlcxQMZRa3JQPLlWqlOo9CeeHv02ZMmWkdOzYUW1JAWdQQ3zx1SpV165dg27M2bNniwULFqiWIRmhHjepR4YNGyZzET/++ONqS3juu+++pLZfJSu+Wxbv16+fudE8CDXRBwwYIGXChAlS7rzzTrU1LYx2cuXKpVqGuKGmVr4ib968qfP4EiVKBL744gu1xfvohfCQZLbhpMePP/4oz7dkyZJB59ynT5/A0aNH1V6ZZ9SoUYGqVatKMYUXw+O7EQ6sWbNGvRJi586d4tprr/VNcnFGd0ldKjYKKKtrKRuZWtXmrLPOEuXLlw9KtJ9RKOFLMUE8lbmnkIoVK4pDhw6pPQxOfKlw8M258sorVSvFnwOloysir0JEtF9KxeBzRBS4XQKG2t4E8GY26yGOhtSyIkwEHyAUjw0lZ+rXr2+ChEOhRjq+w7ox5NI4l8CW6667Tm31Ln6ZUllKJnDLLbcEnesdd9yhtmYO3kd/X6dYSj3pfZxihS9HOFC2bFkxfPhwObKxIUHXu+++q1qGZIZRiL4CyeiGHEmZZcaMGWkCgnX4O2+88YZcqje4oBSPb3nwwQeDnk5FihQJvP/++2qr9/DDCGfr1q0B64ESdJ4rVqxQWzMGI2JGwOEcDZFSpUqpIwxu+HaEYzNo0KCg6pz79u2Tibvw7fBrGotk5uDBg6Jq1ari22+/VT1CnHPOObIvWiiNjAGYAM8aNWqIZcuWid27d6utKYUFncZnPa2tIS2+VzisWuCBrK9kkMkfH46PPvpI9RiSBRTD4cOH5esLL7xQTpnXrl0bdeIxHjytW7eWU6T169envqcN9wz3yGOPPaZ6UjBpbMNzCsMc9drXUB4YGw7exzY8vbxW7WH16tVBIzpWUy699FLVSm6w2eBBfODAAdnu27evdPSMFpQNHsvh7HmsfJHQjNQWn376qepNWSoPpdxQXCtXrlStFLAl1qxZU7V8gJxYGSTWcDnQuHHj1Pm4deMEBg8erLZ6A6/acKzRaOCSSy5JPa+KFSvKQNVoefrppwN333130DVyE2v0E+jatWvgtttuC+q3FI56p5P88ssvct9atWoF7YtcfvnlchvCfl7HKBwHI0aMCLohzj777MCgQYPU1uTHiwrn448/lkvR9jlddNFFga+++kptjRxSWvCQ0a9PtOKmcOrWreu6r1PYz+sYheOAnDGsXJHawL4RCIUYOnSoJ9zWvaRwSLdhTVECBQoUSD2fU089NbBnzx61R+Q8+eSTgVy5cgVdG4S+3Llzp0rOnDnT7GPLvHnz5Gey+fPPPwO333574JRTTnHd3ynsV79+fXW0N/G90dgJRuRRo0aJ9u3bp87FWa3o0qWLjEi2biLZZ8h+LOUpqlevHpQmlRryRYsWVa3IwV7ntL1ccMEFYvHixTIXtC3UOmPVyw3+rl0Hbf/+/bKqJ9U9rd+Z7NNhhQtvdwzbNuyHd/T27dtVjweRasfgSocOHdI8hZJ9euWVEc4nn3wSyJ8/f9C5YCPZu3ev2iN6nn322UDz5s1ThRGLG6+88krAejAF/W1k3bp1cvuuXbsCTZo0Cdp2/vnnB7239UCT+5KFsHTp0kH73nfffXKbFzEKJwwMiZ9//vlAw4YNU28GhtTJjBcUzuzZs4NsNsjNN98swxnixaWXXhr09xFb4Xz44YdB/dgB3333XbnNjQULFkiHQXt/DMlLlixRW72FUTgRMH78+NSbgXn2XXfdFRg4cKDamjxYU4I0eYCTTeHMnz8/TboJzokUovHEqXC6d+8e+PXXX6X96Oqrrw7aZk3N1FGhQWHqx5CD24sYhRMBhw8fDrRp0ybohmBIPWzYsCAjYaLjTKKOxEvhsHpTpkyZVJkzZ05U1459V69eLacm+udnNJARI3Fm4LPoIxJk8uTJcpvbyOfrr7+W28JhFI4hDdh0nMumzOePHz+u9khsfv/9d7lkrH/+eCoc/e8i9hQkEliNch5foUIFtTW+uEWL2wrHuYrFFDYS/KJwzCpVFBAF3LZtW9VK4dFHH5V1rpIhN3LevHnFlClTVCv7IQG6NVpQLXe+/PJLMW3aNGH9IFVPCoQwLFq0SLWSH84nd+7c8jUrV+Rq9iRK8Rgi5MSJE4F27doFPY0QfEGee+45ueqQyGSX0TjUdWNaGopVq1YFqlSpkuaYOnXqZKvtaeLEiWlWyDI7woGXXnop0KtXL09nKzAKJwPggv7OO+9I47F+cyGXXXZZYOnSpWrPxCM7V6m4bo888kjQ38fm4QbTrSuvvDJoX+SGG24IfPvtt2qv7IMEWy+++GKgWrVq8l7YsWOH7M+MwtGZNGlSoFmzZrKWmpcwCicT4PNx0003Bd1gCInZ169fr/ZKLLJT4QAjAf3vuymcffv2pTHKIpUqVQrs3LlT7ZX9sOq3bds21UohKxTOrFmzgiqEct5PPPGE2prcGIWTSf766y85xC9WrFjQjXb66adLXxF+PIlEdiscwkNefvnlQJ48eeTfx82AAEh+uLY4pyusTFGBAb+oROfCCy8M+uwzZsyQVV+doDinTp0qnfw4Z5QX+zFycovnItSGWC/25Z5LVozCySKINHebAvB0Ygk4UZ7M2a1wbJiOnHnmmUGfxU2oE/7NN9+ooxIfrqfzHD744AN5D+iCM6C+D/Y/9tP7Qgkli92UWDJgFE4WwjQKBzDsOM6bhLQXhEUcO3ZM7Z09JIrCAXxo9M+iCyMFrmVGUkxkJwcOHEg3ybqb4M0eiQK2ZfTo0eovJhdG4cSAxYsXp/F3sYU4GlYjsotEUTgjR45MM3Wy5bXXXgvMnTtX7Zl8YEDWw2HSE+KuGCHjkezcxsinb9++afoZIbVt21aOipIJo3BiBN6loYbI3Cw1atQITJkyRe0dPxJB4YwdOzYopYQuPLm9kAYEBRJJHhxGQ3hKk4ALu5++Dec/bDs4bD7zzDNB22zBdsi9tHHjRvWXExujcGIIvicYAQsVKiTFaQzEcHruuefKZFH79++XsTixJrsUDsZzzhUhr4z998lfY1+fN99801OlciknfOjQITnatc9Rl1tvvVUqE0JOnNkAe/fuHWQcdq7uOYWH2Pbt29XeiYtROHGkU6dOaZZNdcG9nenYwYMH1RFZTzwVDkqG80Gcq3gITn1MMf0Mo5tGjRoFXReWxPHtsUFxUQ9d38dNzjvvvIjitrITk0Q9zpCcm6oQ1hBYLF++XPUGQ/IvSpNYowFxzz33qN6sIR5J1N9++22ZtGzVqlXytRNL0Ujp1auXTHKVUey/A5yTXr45Gdi7d6+s+jBp0iTVk1JIb+DAgTI5OxD6YSkb8cILL8i2zYMPPihy5MghC/5ZDxHVK0SdOnVkGeKERaodQ9xhqZe0pc7kS7pg52BUxDJqVhGrEc5nn30mPysSarWFIoOcMyELWYFuZK1evXpUwaCJAB7p+vXBhmOHSNgwxdT3QXr06CGn64CdR9+GT1h6MF2zvyvyQccTo3CymS+++ELaefSbxilUI8Cj2RZumIySVQpnyJAhQZ+JlBP6+zqFnEJZtcSNHwp/05mDmMRXyQShHl26dEn9/ChqJzgG6ufYs2dPafOxiVbhoKz064ZHd2arkkaDUTgJAE5crGqwHEyeHSRc4u0zzjhD2kRsIcTit99+S5VwhtdIFQ6fSX9PhIx69t8ksbz+Pk6xzwN56623Mm0M5vMQGBvubzMiTLZRDoZy+zqtXbtW9QZkypOWLVtKo7p9ft26dQvy4yJToO5AyD3DqpcTrv2YMWPktXNLFB9PRW1sOAkKCbh//PFHmSCcxNrRQLqMSpUqqVYwmzZtEg888IBqCfH++++L4sWLq9ZJdu3aJZo0aaJakWNNEcX5558vlixZonqyBlJRWKMa1QpNzpw5hfUDU63khHLFpD2ZOHGi6hHSnjdgwADRrl072SaZ//Dhw6VN0AZ7mPXgUq0UuBaWUhMdOnRQPWmxFI5o0KCBasUYqXYMCQv2jlatWknJly9fmqdTIghLvPZnzOqgVYb7TMci9cIl5ijZplZOli9fHihfvnzQeeEcqEM8mr4d6dixo9qaAs6TpP9w7qcL4ThM6+OFGeEkETypKK5vM3XqVJmgKt6QLKp+/fqqlfJkbd68uWplHZ999pl45JFHhDVNUj0nYZRmJ6myfjBypGZTsGBB8eqrr8bkM8WLJ598Urz00kvyNSPGkSNHBo1CKGlz4sQJ1RLCUjbilVdeEdaUSV436uK/9957cpQcjv79+8u/FTek2jEkJbbBWRdnqsrMCi76vC/GRVZQeB3r1BvEI1EQjsBNt89EfumffvpJ7Z1SlsUZSuAcESQbeA5zrVmJ+/TTT1VvCqwu6TY+DM92mWDrARTyurlJvFOZGoXjMfBYxhCMWE84mcSJ1zVr1pROh7oREmEp1t7fTWwnRKLdYx2hzFIvuY/dgl8Rkl3xmdxqcD/11FNBP0KCZe2l42TGTuwFnA/KRg+B4JwxygOKt2jRoqnbdOG7p246YRB6v1E4hpgST0/jaGDEwqhG/2y64GcTDryanSVwCHr0Em5BnCxzo2jw69JDRnTBTkM+IbyauY76tngrHJNE3ZAQjBs3TtodnFSuXFncfffdYv78+arHHVaxLOWpWv6gSJEi0pbTokUL6Zl+/PhxtSUY7Hx4LlMAYOXKlao3ezAKx8fce++9crk1USFcAWMpxvGzzz5b9bpTuHBhWRfexpqWiVq1aqmWN+B8CHMoVKiQbHO+KJBly5bJdjhQyPPmzVOtFFBSLADEE6NwfEzTpk1FgQIFVCvxuPrqq2XMVSRQcmbz5s2qJUT58uXFDTfcoFregPN55plnxFtvvSWGDBkiR3QokoxyxRVXiJo1a6pWfDAKx8d06dJF7Ny5U7WyF5a569Wrp1qGcNStW1c68rH07wQl/fXXX6dKvnz51JYEQdlyDD6AVSZnUrBEMRoDLviVK1dO/Ww48ZFDiJIpbitO5H/ZsmWLrPPOvvZx5JnJbChFMrBw4UJZZ90WVu+c582qH86TpK6wrw9CiMNjjz2m9oofRuH4COJwrr322qAbL5EUDhAv5Fy6R+zsiCwTU0YFccsaWLt2bbmfIRhSuurXqWrVqmpLfDGexj7CetrJGB1icGywA2R1PpzMwlRv2LBhqpVCnjx5RN++fWWOnRkzZqjetGDHwQP522+/TbPqVapUKdGwYUPV8hejRo2SeZZsLIUjcyPFHal2DL6AtAZ85bok2ggH8Ctxfs70hKx548aNC/z888+B1q1bp0nZiRQvXlxuI1bJbyTKCMcoHB+BHYR0CPZNRwAgSboTDQrerVy5MihXTDjBZoNjGzaJq666ynUfXcgvtGHDBvXXvA/hDhRltM8fB8HsqvVlFI7P0D2NGREksnEVxYPSwV2f6pv250aw3xDfReJ5wi+oYRUuX7RTyKlDfp9Y5o9OFJyZBd0SfcULY8PxGfHIaRwLLMUiGjdurFpC5obBR+e3336T+X7JA+zEeqoLazQjX1sjOVcv24TPAZwFWKMZmRv7u+++k21L4YijR4/K13FHqh2DL6DsCPWp+dptSUQbTqQwQnOeD8GMjzzyiBQ9FzSxWvQ5Y4nIKc0IwOtgt6pYsaI85+wc4RiF4yOcRuOHHnoocPjwYbU1+dCTqNvSr18/tdUdUno47TxM2/wASod80NlZJtgoHB/hVDjkW0lWMBA78/NSFjeS2u16YnIcDZN5lJdsmNAGH5E3b14xd+5c1RIygnjbtm2qlTxgj1m7dq2wpoiqR4gzzjhD1qXCXyca1q9f71o7yxAbjMLxEdYDRuzZs0e1Ugyx//77r2olDz179gxK0k7xOGuaIG677TbVEzk4Q2abAdWHGIXjIxgZ2Fn/vcStt94qWrZsqVrhIT/yli1bVEuIokWLBq3aGWKLUTgGX0FOGH15vFy5cjJNhyE+GIVjMBjihlE4PoOUlDa8PuWUU1Qreejdu3dQprrp06eL1157LSJ7FAGMFPijnEqJEiVkMitD/DCexj6CHyS1iu677z7Znjlzprjjjjvk62Tj5ptvFgsXLlStFAYPHiwTUxEprlOmTBmRO3du1TJkJ2aE4yMwGtvKBpYuXZq0KzSk23Qqke7du8uRDsvjugwdOlT8999/ai9DdmJGOD4C5eJMRp4ssVRuUBM9vcqSNix/69NJkrPbLgLVq1fP0JK6IXqMwvERXlM4c+bMkYGJ+OWkBwrnq6++Ei+//LJsf/rpp+Lw4cPyNYm5Xn/9dTlNM8QYFI7BHzhDG6zph0wBkcwQyvDCCy8EnZctHTp0kHlvkG3btskEXG77IUWKFAmsWbNGvashVhgbjo/JkSNHUq5S6RDK8NRTT0mDOCtQP/zwg3yNMGrJnz+/aNSokShZsqTYvXu3Oiot+/btE1dddZU4ePCg6jHEAjOl8hFUZsQrF2OxTTJPqcKBbccasYhXXnlFrFixQvWmz4EDB2SohCE2GIXjM/QEXDz5MZ4WLFhQtr0CSoNE7JMnT1Y9J6Fu0/XXX69aQmzfvl1MmTJFtYR4/vnnRa9evVTLkOWgcAz+QU8xmszpKUJBytR69eqlnqMulSpVkvlwdCjw36xZs9R9LOWrthhigbHh+BhKxuzatUu1vMHdd98tZs+erVonYQmdkQx+OTqc//Lly1UrJYLeiwGuiYJROD6GXMAXXHCBankDQhXOP/981RKydjrKZsOGDUG2qv379wtrtCcdCHVj8okTJ8S4cePE/fffL44cOaJ6DVmFUTg+gh8TheRsNm3aJA3JXgI/I4zE+NQg06ZNk6MY2/+IhGMLFiwQtWrVkvacP//8U/br4JU8YcIE8cQTT4hDhw6pXkNWYIzGPsLp+Fe/fn3x5ptv+mZVhiVzjMk4DEYKS+04C5511lmqx5AZjMLxEU6Fk8zBm9FCUCejG7eSMDfeeKOMIAeu0eOPPy5f2zBCYlpmyAJQOAZ/wAqOXvL1sssuk2V1vU6rVq1Sz9kpVapUCWzdulXtmVJKZ9iwYUH7+OEaxQtjw/EROXPmFJUqVVKtFBuOmw3DSxBB7vTHoRAcvkf44JDiAi9kYIVqx44dMt+OITYYheNjrBGOrHbgZciRc++998oqncCq3NSpU2UIw0UXXSTy5csn+4HpZenSpWU1T5vy5cuL008/XbUMmcUoHB/Tv39/X9gmWHHCN+fBBx+UuXEI79ChVMyoUaNkPJUOaSvw3SlcuLDqMWQWYzT2GXpog5+Mxm6QnuKZZ56RaSuWLVumelNA2QwfPjyNo6Ahc5gRjsG3UK2BEY+ubFjFmz9/vhgzZkxEyoZA2FtuuSVV8HUyhMaMcHyGGeEIWbGzYcOGsmSMfvtjz8L7uEKFCrLNfrYCIdEX+aDxWRo7dqzsA9K2/vzzz6olZHL3Tz75xPO2sYxiFI6PIEfMO++8I1q3bi3bflU4lDh2lve98MILxYwZM2SOIFvJkNrCLeI8PbimXFtDWsyUykfwNLaVjSEYnP82btwoatasKapWrSolI8oGj2Q9/YUhGDPC8RFMEbp16yZGjBgh234d4Xz00UdyZYrlbzvHcVaBobljx46qZUgDCsfgH/R8ONWqVZP5YPwK+ZD79OmTej0ikRYtWgSmT58eeP/999NsGzJkSMCatqp3N7hhplQ+hhpVXsv2Fw3kQ9YreKYHo0FLqYgGDRqI0aNHq94UyA3NtAwbkCE05ur4CIzGBDDa4HXrdy/avHnzSo9rNzn33HPVXinMmjVL5hCqXbt2mqqfkyZNSl3dMoTG2HB8hJ+jxTPC+PHjxZNPPilzJIejbNmy0m8nmtGSXzEjHB+D277uQ2IIhqx/L730UthcOCgbDMVG2USGUTg+Ame0Z599VrWETMWpl781pAU3AuKs3CAODVsOthtDZBiF4yNQLrjf2+DoRkoGQ3hIzuV0FAQiza+99lrVMkSCUTg+gly9dgF/wAfFa0nUYwHFAtu2bataKZQoUUIW2jNEh1E4PoJkW4MGDVItIVeozDJueIitwvv477//Vj1CVK5cWSZqz5Url+oxRIq523wEfif4kRgiY/HixaJly5ZBhnWmUOTXKVasmOoxRINROAaDC0uWLBGdOnUSW7ZsUT0p3H777TILoCFjGIVjMLiwefNmGcypU7duXdGiRQvVMmQEo3B8xLFjx8Q999yjWoZwsBz+2GOPpXpik4Ceyp3GyJ45jKexzzAJuKKDGlVr164VZcqUSY2yN2Qco3B8hlE4huzETKkMBkPcMArHYDDEDaNwDAZD3DAKx2AwxAkh/h/eyRcAVo6WzwAAAABJRU5ErkJggg==;clipPath=inset(4.11% 6.34% 0.68% 2.11%);" vertex="1" parent="1">
          <mxGeometry x="484" y="611" width="80.43" height="86" as="geometry" />
        </mxCell>
      </root>
    </mxGraphModel>
  </diagram>
</mxfile>
